<?xml version="1.0" encoding="UTF-8"?>
<svg width="25px" height="25px" viewBox="0 0 25 25" version="1.1" xmlns="http://www.w3.org/2000/svg" xmlns:xlink="http://www.w3.org/1999/xlink">
    <title>server</title>
    <g id="Phone" stroke="none" stroke-width="1" fill="none" fill-rule="evenodd">
        <g id="1.1-登录" transform="translate(-39.000000, -722.000000)" fill="#939BA5" fill-rule="nonzero">
            <g id="btn-server" transform="translate(27.000000, 708.000000)">
                <g id="server" transform="translate(12.000000, 14.000000)">
                    <path d="M16.227311,18.722321 C15.538333,18.722321 14.979806,19.280848 14.979806,19.969826 C14.979806,20.658804 15.538333,21.217331 16.227311,21.217331 C16.916289,21.217331 17.474816,20.658804 17.474816,19.969826 C17.474816,19.280848 16.916289,18.722321 16.227311,18.722321 L16.227311,18.722321 Z M8.74228106,18.722321 L4.99976609,18.722321 C4.31078811,18.722321 3.75226109,19.280848 3.75226109,19.969826 C3.75226109,20.658804 4.31078811,21.217331 4.99976609,21.217331 L8.74228106,21.217331 C9.43125905,21.217331 9.98978606,20.658804 9.98978606,19.969826 C9.98978606,19.280848 9.43125905,18.722321 8.74228106,18.722321 L8.74228106,18.722321 Z M19.969826,18.722321 C19.280848,18.722321 18.722321,19.280848 18.722321,19.969826 C18.722321,20.658804 19.280848,21.217331 19.969826,21.217331 C20.658804,21.217331 21.217331,20.658804 21.217331,19.969826 C21.217331,19.280848 20.658804,18.722321 19.969826,18.722321 Z M16.227311,11.237291 C15.538333,11.237291 14.979806,11.795818 14.979806,12.484796 C14.979806,13.173774 15.538333,13.732301 16.227311,13.732301 C16.916289,13.732301 17.474816,13.173774 17.474816,12.484796 C17.474816,11.795818 16.916289,11.237291 16.227311,11.237291 L16.227311,11.237291 Z M8.74228106,11.237291 L4.99976609,11.237291 C4.31078811,11.237291 3.75226109,11.795818 3.75226109,12.484796 C3.75226109,13.173774 4.31078811,13.732301 4.99976609,13.732301 L8.74228106,13.732301 C9.43125905,13.732301 9.98978606,13.173774 9.98978606,12.484796 C9.98978606,11.795818 9.43125905,11.237291 8.74228106,11.237291 L8.74228106,11.237291 Z M19.969826,3.75226109 C19.280848,3.75226109 18.722321,4.31078811 18.722321,4.99976609 C18.722321,5.68874408 19.280848,6.24727109 19.969826,6.24727109 C20.658804,6.24727109 21.217331,5.68874408 21.217331,4.99976609 C21.217331,4.31078811 20.658804,3.75226109 19.969826,3.75226109 Z M19.969826,11.237291 C19.280848,11.237291 18.722321,11.795818 18.722321,12.484796 C18.722321,13.173774 19.280848,13.732301 19.969826,13.732301 C20.658804,13.732301 21.217331,13.173774 21.217331,12.484796 C21.217331,11.795818 20.658804,11.237291 19.969826,11.237291 Z M24.9598459,3.75226109 C24.9598459,1.68532715 23.2842649,0.00974612299 21.217331,0.00974612299 L3.75226109,0.00974612299 C1.68532715,0.00974612299 0.00974612299,1.68532715 0.00974612299,3.75226109 L0.00974612299,6.24727109 C0.0152483857,7.17049293 0.361805596,8.05910116 0.982800015,8.74228106 C0.361805596,9.42546096 0.0152483857,10.3140692 0.00974612299,11.237291 L0.00974612299,13.732301 C0.0152483857,14.6555229 0.361805596,15.5441311 0.982800015,16.227311 C0.361805596,16.9104909 0.0152483857,17.7990991 0.00974612299,18.722321 L0.00974612299,21.217331 C0.00974612299,23.2842649 1.68532715,24.9598459 3.75226109,24.9598459 L21.217331,24.9598459 C23.2842649,24.9598459 24.9598459,23.2842649 24.9598459,21.217331 L24.9598459,18.722321 C24.9543437,17.7990991 24.6077865,16.9104909 23.9867921,16.227311 C24.6077865,15.5441311 24.9543437,14.6555229 24.9598459,13.732301 L24.9598459,11.237291 C24.9543437,10.3140692 24.6077865,9.42546096 23.9867921,8.74228106 C24.6077865,8.05910116 24.9543437,7.17049293 24.9598459,6.24727109 L24.9598459,3.75226109 Z M22.4648359,21.217331 C22.4648359,21.9063089 21.9063089,22.4648359 21.217331,22.4648359 L3.75226109,22.4648359 C3.06328313,22.4648359 2.50475612,21.9063089 2.50475612,21.217331 L2.50475612,18.722321 C2.50475612,18.033343 3.06328313,17.474816 3.75226109,17.474816 L21.217331,17.474816 C21.9063089,17.474816 22.4648359,18.033343 22.4648359,18.722321 L22.4648359,21.217331 Z M22.4648359,13.732301 C22.4648359,14.421279 21.9063089,14.979806 21.217331,14.979806 L3.75226109,14.979806 C3.06328313,14.979806 2.50475612,14.421279 2.50475612,13.732301 L2.50475612,11.237291 C2.50475612,10.5483131 3.06328313,9.98978606 3.75226109,9.98978606 L21.217331,9.98978606 C21.9063089,9.98978606 22.4648359,10.5483131 22.4648359,11.237291 L22.4648359,13.732301 Z M22.4648359,6.24727109 C22.4648359,6.93624906 21.9063089,7.49477606 21.217331,7.49477606 L3.75226109,7.49477606 C3.06328313,7.49477606 2.50475612,6.93624906 2.50475612,6.24727109 L2.50475612,3.75226109 C2.50475612,3.06328313 3.06328313,2.50475612 3.75226109,2.50475612 L21.217331,2.50475612 C21.9063089,2.50475612 22.4648359,3.06328313 22.4648359,3.75226109 L22.4648359,6.24727109 Z M16.227311,3.75226109 C15.538333,3.75226109 14.979806,4.31078811 14.979806,4.99976609 C14.979806,5.68874408 15.538333,6.24727109 16.227311,6.24727109 C16.916289,6.24727109 17.474816,5.68874408 17.474816,4.99976609 C17.474816,4.31078811 16.916289,3.75226109 16.227311,3.75226109 L16.227311,3.75226109 Z M8.74228106,3.75226109 L4.99976609,3.75226109 C4.31078811,3.75226109 3.75226109,4.31078811 3.75226109,4.99976609 C3.75226109,5.68874408 4.31078811,6.24727109 4.99976609,6.24727109 L8.74228106,6.24727109 C9.43125905,6.24727109 9.98978606,5.68874408 9.98978606,4.99976609 C9.98978606,4.31078811 9.43125905,3.75226109 8.74228106,3.75226109 L8.74228106,3.75226109 Z" id="形状"></path>
                </g>
            </g>
        </g>
    </g>
</svg>